<svg xmlns="http://www.w3.org/2000/svg" version="1.1" xmlns:xlink="http://www.w3.org/1999/xlink" xmlns:svgjs="http://svgjs.dev/svgjs" width="2000" height="1500" viewBox="0 0 2000 1500"><rect width="2000" height="1500" fill="#000000"></rect><g transform="matrix(0.75,0,0,0.75,249.09087657432246,607.2064411133022)"><svg viewBox="0 0 396 76" data-background-color="#21232b" preserveAspectRatio="xMidYMid meet" height="383" width="2000" xmlns="http://www.w3.org/2000/svg" xmlns:xlink="http://www.w3.org/1999/xlink"><g id="tight-bounds" transform="matrix(1,0,0,1,0.24000858437887018,-0.21998093859343726)"><svg viewBox="0 0 395.52 76.43996187718687" height="76.43996187718687" width="395.52"><g><svg viewBox="0 0 399.02795536457575 77.117925" height="76.43996187718687" width="395.52"><g><svg viewBox="0 0 399.02795536457575 77.117925" height="77.117925" width="399.02795536457575"><g id="textblocktransform"><svg viewBox="0 0 399.02795536457575 77.117925" height="77.117925" width="399.02795536457575" id="textblock"><g><svg viewBox="0 0 399.02795536457575 77.117925" height="77.117925" width="399.02795536457575"><g><svg><g></g><g></g></svg></g><g><svg><g><svg></svg></g><g></g></svg></g><g id="text-0"><svg viewBox="0 0 399.02795536457575 77.117925" height="77.117925" width="399.02795536457575"><g transform="matrix(1,0,0,1,0,0)"><svg width="311.89044833801324" viewBox="2.8605555777919998 -35.5 156.70647144621995 38.75" height="77.117925" data-palette-color="#f4f3f0"><g class="wordmark-text-0" data-fill-palette-color="primary"><path d="M15.15 0.5L15.15 0.5Q11.95 0.5 9.4-0.33 6.85-1.15 5.23-2.85 3.6-4.55 3.08-7.18 2.55-9.8 3.3-13.4L3.3-13.4 7.6-33.75Q7.7-34.3 8.13-34.65 8.55-35 9.05-35L9.05-35 13.6-35Q14.15-35 14.4-34.65 14.65-34.3 14.55-33.75L14.55-33.75 10.2-13.4Q9.35-9.3 10.6-7.33 11.85-5.35 15.6-5.35L15.6-5.35Q19.2-5.35 21.55-7.33 23.9-9.3 24.75-13.4L24.75-13.4 29.1-33.75Q29.2-34.3 29.65-34.65 30.1-35 30.6-35L30.6-35 35.1-35Q35.65-35 35.9-34.65 36.15-34.3 36.05-33.75L36.05-33.75 31.75-13.4Q30.2-6.2 26.2-2.85 22.2 0.5 15.15 0.5ZM41.45 0L37.05 0Q36.55 0 36.27-0.35 36-0.7 36.1-1.2L36.1-1.2 41.1-24.8Q41.2-25.3 41.62-25.65 42.05-26 42.55-26L42.55-26 46.65-26Q47.15-26 47.4-25.65 47.65-25.3 47.55-24.8L47.55-24.8 47.1-22.75Q48.7-24.35 50.87-25.43 53.05-26.5 55.8-26.5L55.8-26.5Q59.2-26.5 61.25-25.13 63.3-23.75 63.97-21.25 64.65-18.75 63.9-15.25L63.9-15.25 60.9-1.2Q60.8-0.7 60.4-0.35 60 0 59.45 0L59.45 0 55.05 0Q54.55 0 54.27-0.35 54-0.7 54.1-1.2L54.1-1.2 57-14.95Q57.65-18 56.87-19.58 56.1-21.15 53.2-21.15L53.2-21.15Q50.35-21.15 48.37-19.5 46.4-17.85 45.75-14.95L45.75-14.95 42.85-1.2Q42.75-0.7 42.35-0.35 41.95 0 41.45 0L41.45 0ZM80.19 0.5L80.19 0.5Q75.55 0.5 72.59-0.85 69.64-2.2 68.32-4.42 67-6.65 67.39-9.15L67.39-9.15Q67.44-9.6 67.77-9.9 68.09-10.2 68.55-10.2L68.55-10.2 73.14-10.2Q73.75-10.2 74.02-9.93 74.3-9.65 74.44-9.25L74.44-9.25Q74.59-8.3 75.25-7.38 75.89-6.45 77.22-5.85 78.55-5.25 80.64-5.25L80.64-5.25Q84.25-5.25 86.34-6.45 88.44-7.65 88.89-9.7L88.89-9.7Q89.19-11.15 88.44-12.03 87.69-12.9 85.84-13.63 84-14.35 80.94-15.15L80.94-15.15Q77.44-16.05 75.19-17.45 72.94-18.85 72.12-20.95 71.3-23.05 71.94-26L71.94-26Q72.84-30.35 76.57-32.93 80.3-35.5 86.34-35.5L86.34-35.5Q89.5-35.5 91.84-34.63 94.19-33.75 95.75-32.33 97.3-30.9 97.94-29.28 98.59-27.65 98.34-26.1L98.34-26.1Q98.3-25.7 98-25.38 97.69-25.05 97.19-25.05L97.19-25.05 92.44-25.05Q92-25.05 91.64-25.25 91.3-25.45 91.14-26L91.14-26Q91.19-27.55 89.77-28.65 88.34-29.75 85.94-29.75L85.94-29.75Q83.25-29.75 81.32-28.75 79.39-27.75 78.89-25.65L78.89-25.65Q78.64-24.25 79.25-23.33 79.84-22.4 81.5-21.7 83.14-21 86.05-20.2L86.05-20.2Q90.14-19.25 92.52-17.88 94.89-16.5 95.75-14.45 96.59-12.4 95.94-9.45L95.94-9.45Q94.94-4.55 90.89-2.02 86.84 0.5 80.19 0.5ZM126.74 3.25L122.09 3.25Q121.39 3.25 121.07 2.83 120.74 2.4 120.54 2.1L120.54 2.1 119.24-0.4Q116.69 0.5 113.69 0.5L113.69 0.5Q109.24 0.5 106.34-0.98 103.44-2.45 102.29-5.53 101.14-8.6 101.99-13.2L101.99-13.2Q102.39-15.35 102.84-17.45 103.29-19.55 103.79-21.75L103.79-21.75Q104.89-26.3 107.39-29.35 109.89-32.4 113.47-33.95 117.04-35.5 121.34-35.5L121.34-35.5Q125.64-35.5 128.54-33.95 131.44-32.4 132.64-29.35 133.84-26.3 133.04-21.75L133.04-21.75Q132.69-19.55 132.22-17.45 131.74-15.35 131.19-13.2L131.19-13.2Q129.59-6.65 125.49-3.25L125.49-3.25 127.94 1.7Q128.04 1.9 127.99 2.2L127.99 2.2Q127.94 2.65 127.54 2.95 127.14 3.25 126.74 3.25L126.74 3.25ZM114.94-5.25L114.94-5.25Q118.14-5.25 120.62-7.18 123.09-9.1 124.14-13.45L124.14-13.45Q124.69-15.65 125.09-17.53 125.49-19.4 125.84-21.55L125.84-21.55Q126.39-24.45 125.79-26.28 125.19-28.1 123.72-28.93 122.24-29.75 120.09-29.75L120.09-29.75Q116.94-29.75 114.47-27.83 111.99-25.9 110.89-21.55L110.89-21.55Q110.39-19.4 109.99-17.53 109.59-15.65 109.19-13.45L109.19-13.45Q108.69-10.55 109.27-8.75 109.84-6.95 111.32-6.1 112.79-5.25 114.94-5.25ZM157.34 0L135.64 0Q135.09 0 134.82-0.35 134.54-0.7 134.64-1.2L134.64-1.2 141.59-33.8Q141.69-34.3 142.09-34.65 142.49-35 143.04-35L143.04-35 147.64-35Q148.19-35 148.47-34.65 148.74-34.3 148.64-33.8L148.64-33.8 142.69-5.95 158.54-5.95Q159.09-5.95 159.37-5.6 159.64-5.25 159.54-4.7L159.54-4.7 158.79-1.2Q158.69-0.7 158.29-0.35 157.89 0 157.34 0L157.34 0Z" fill="#ffffff" data-fill-palette-color="primary"></path></g></svg></g><g><svg xmlns="http://www.w3.org/2000/svg" xmlns:xlink="http://www.w3.org/1999/xlink" version="1.0" x="326.69294833801325" y="0" viewBox="2.977 1 45.023 48" enable-background="new 0 0 50 50" xml:space="preserve" height="77.117925" width="72.33500702656251" class="icon-cg-0" data-fill-palette-color="accent" id="cg-0"><g fill="#8541f8" data-fill-palette-color="accent"><g fill="#8541f8" data-fill-palette-color="accent"><path fill="#ffffff" d="M25.545 10.997c12.468 0 21.576-2.238 21.576-4.999C47.121 3.238 38.014 1 25.545 1 13.077 1 3.97 3.238 3.97 5.999 3.97 8.759 13.077 10.997 25.545 10.997z" data-fill-palette-color="accent"></path><path fill="#ffffff" d="M41.424 30.931c2.299 0 4.592 0.908 6.131 2.381C47.637 33.241 47 33.171 48 33.103V22.224c-5 2.167-13.603 3.289-22.501 3.289S8 24.391 3 22.224v10.877c2 1.685 10.002 3.748 22.289 3.748 2.846 0 5.591-0.114 7.97-0.306C34.466 33.271 37.73 30.931 41.424 30.931z" data-fill-palette-color="accent"></path><path fill="#ffffff" d="M32.852 39.503c0-0.384 0.035-0.758 0.084-1.128-2.398 0.175-5.152 0.267-7.646 0.267C16.391 38.642 8 37.521 3 35.353v8.564c0 0.066-0.023 0.133-0.023 0.2S3 44.25 3 44.316v0.007l0 0C3 46.714 13.422 49 25.289 49c5.361 0 10.304-0.44 14.067-1.153C35.558 46.967 32.852 43.569 32.852 39.503z" data-fill-palette-color="accent"></path><path fill="#ffffff" d="M48 19.974V9.065c-4 2.376-13.331 3.607-22.501 3.607S7 11.441 3 9.065v10.909c2 1.685 10.212 3.747 22.499 3.747C37.788 23.721 46 21.658 48 19.974z" data-fill-palette-color="accent"></path></g><g fill="#8541f8" data-fill-palette-color="accent"><g fill="#8541f8" data-fill-palette-color="accent"><path fill="#ffffff" d="M43.477 45.06c0 0.838-0.898 1.52-1.738 1.518l0 0c-0.84 0.002-1.738-0.68-1.738-1.52v-5.873c0-0.838 0.9-1.52 1.74-1.52l0 0c0.836 0.002 1.626 0.682 1.629 1.52L43.477 45.06z" data-fill-palette-color="accent"></path></g><polygon fill="#ffffff" points="36.717,42 41.959,32.921 47.201,42   " data-fill-palette-color="accent"></polygon></g></g></svg></g></svg></g></svg></g></svg></g></svg></g></svg></g><defs></defs></svg><rect width="395.52" height="76.43996187718687" fill="none" stroke="none" visibility="hidden"></rect></g></svg></g></svg>