<svg xmlns="http://www.w3.org/2000/svg" version="1.1" xmlns:xlink="http://www.w3.org/1999/xlink" xmlns:svgjs="http://svgjs.dev/svgjs" width="128" height="128" viewBox="0 0 128 128"><g transform="matrix(0.8046875,0,0,0.8046875,12.247758042708334,9.958606291118414)"><svg viewBox="0 0 90 95" data-background-color="#21232b" preserveAspectRatio="xMidYMid meet" height="135" width="128" xmlns="http://www.w3.org/2000/svg" xmlns:xlink="http://www.w3.org/1999/xlink"><g id="tight-bounds" transform="matrix(1,0,0,1,0.22040559375000157,-0.24049999999999727)"><svg viewBox="0 0 89.5591888125 95.481" height="95.481" width="89.5591888125"><g><svg viewBox="0 0 89.5591888125 95.481" height="95.481" width="89.5591888125"><g><svg viewBox="0 0 89.5591888125 95.481" height="95.481" width="89.5591888125"><g id="textblocktransform"><svg viewBox="0 0 89.5591888125 95.481" height="95.481" width="89.5591888125" id="textblock"><g><svg viewBox="0 0 89.5591888125 95.481" height="95.481" width="89.5591888125"><g><svg viewBox="0 0 89.5591888125 95.481" height="95.481" width="89.5591888125"><g><svg xmlns="http://www.w3.org/2000/svg" xmlns:xlink="http://www.w3.org/1999/xlink" version="1.0" x="0" y="0" viewBox="2.977 1 45.023 48" enable-background="new 0 0 50 50" xml:space="preserve" height="95.481" width="89.5591888125" class="icon-icon-0" data-fill-palette-color="accent" id="icon-0"><g fill="#8541f8" data-fill-palette-color="accent"><g fill="#8541f8" data-fill-palette-color="accent"><path fill="#8541f8" d="M25.545 10.997c12.468 0 21.576-2.238 21.576-4.999C47.121 3.238 38.014 1 25.545 1 13.077 1 3.97 3.238 3.97 5.999 3.97 8.759 13.077 10.997 25.545 10.997z" data-fill-palette-color="accent"></path><path fill="#8541f8" d="M41.424 30.931c2.299 0 4.592 0.908 6.131 2.381C47.637 33.241 47 33.171 48 33.103V22.224c-5 2.167-13.603 3.289-22.501 3.289S8 24.391 3 22.224v10.877c2 1.685 10.002 3.748 22.289 3.748 2.846 0 5.591-0.114 7.97-0.306C34.466 33.271 37.73 30.931 41.424 30.931z" data-fill-palette-color="accent"></path><path fill="#8541f8" d="M32.852 39.503c0-0.384 0.035-0.758 0.084-1.128-2.398 0.175-5.152 0.267-7.646 0.267C16.391 38.642 8 37.521 3 35.353v8.564c0 0.066-0.023 0.133-0.023 0.2S3 44.25 3 44.316v0.007l0 0C3 46.714 13.422 49 25.289 49c5.361 0 10.304-0.44 14.067-1.153C35.558 46.967 32.852 43.569 32.852 39.503z" data-fill-palette-color="accent"></path><path fill="#8541f8" d="M48 19.974V9.065c-4 2.376-13.331 3.607-22.501 3.607S7 11.441 3 9.065v10.909c2 1.685 10.212 3.747 22.499 3.747C37.788 23.721 46 21.658 48 19.974z" data-fill-palette-color="accent"></path></g><g fill="#8541f8" data-fill-palette-color="accent"><g fill="#8541f8" data-fill-palette-color="accent"><path fill="#8541f8" d="M43.477 45.06c0 0.838-0.898 1.52-1.738 1.518l0 0c-0.84 0.002-1.738-0.68-1.738-1.52v-5.873c0-0.838 0.9-1.52 1.74-1.52l0 0c0.836 0.002 1.626 0.682 1.629 1.52L43.477 45.06z" data-fill-palette-color="accent"></path></g><polygon fill="#8541f8" points="36.717,42 41.959,32.921 47.201,42   " data-fill-palette-color="accent"></polygon></g></g></svg></g></svg></g></svg></g></svg></g></svg></g></svg></g><defs></defs></svg><rect width="89.5591888125" height="95.481" fill="none" stroke="none" visibility="hidden"></rect></g></svg></g></svg>